<svg width="24" height="24" viewBox="0 0 24 24" fill="none" xmlns="http://www.w3.org/2000/svg">
<path fill-rule="evenodd" clip-rule="evenodd" d="M19.2692 11.8846C19.2692 15.963 15.963 19.2692 11.8846 19.2692C7.80621 19.2692 4.5 15.963 4.5 11.8846C4.5 7.80621 7.80621 4.5 11.8846 4.5C15.963 4.5 19.2692 7.80621 19.2692 11.8846ZM15.9596 10.4596C16.2135 10.2058 16.2135 9.79422 15.9596 9.54038C15.7058 9.28654 15.2942 9.28654 15.0404 9.54038L11.3547 13.2261L9.36056 11.8967C9.06186 11.6975 8.6583 11.7783 8.45917 12.0769C8.26004 12.3756 8.34075 12.7792 8.63944 12.9783L10.9405 14.5124C11.2777 14.7371 11.7266 14.6927 12.0131 14.4062L15.9596 10.4596Z" fill="#20BF55"/>
</svg>
