<svg width="24" height="24" viewBox="0 0 24 24" fill="none" xmlns="http://www.w3.org/2000/svg">
<path d="M9.13455 7.07694V6.57694H8.63455V7.07694H9.13455ZM9.13455 10.1539H8.63455V10.6539H9.13455V10.1539ZM9.13455 13.8462V13.3462H8.63455V13.8462H9.13455ZM9.13455 16.9231H8.63455V17.4231H9.13455V16.9231ZM15.4414 11.817L15.1546 11.4074C15.009 11.5094 14.9284 11.681 14.9431 11.8582C14.9577 12.0354 15.0654 12.1915 15.2258 12.2681L15.4414 11.817ZM9.13455 7.57694H12.6113V6.57694H9.13455V7.57694ZM12.6113 9.65386H9.13455V10.6539H12.6113V9.65386ZM9.63455 10.1539V7.07694H8.63455V10.1539H9.63455ZM13.6498 8.6154C13.6498 9.18893 13.1848 9.65386 12.6113 9.65386V10.6539C13.7371 10.6539 14.6498 9.74121 14.6498 8.6154H13.6498ZM12.6113 7.57694C13.1848 7.57694 13.6498 8.04187 13.6498 8.6154H14.6498C14.6498 7.48959 13.7371 6.57694 12.6113 6.57694V7.57694ZM9.13455 14.3462H12.6113V13.3462H9.13455V14.3462ZM12.6113 16.4231H9.13455V17.4231H12.6113V16.4231ZM9.63455 16.9231V13.8462H8.63455V16.9231H9.63455ZM13.6498 15.3846C13.6498 15.9581 13.1848 16.4231 12.6113 16.4231V17.4231C13.7371 17.4231 14.6498 16.5104 14.6498 15.3846H13.6498ZM12.6113 14.3462C13.1848 14.3462 13.6498 14.8111 13.6498 15.3846H14.6498C14.6498 14.2588 13.7371 13.3462 12.6113 13.3462V14.3462ZM12.8959 3.5H6.6269V4.5H12.8959V3.5ZM5.5 4.61538V19.3846H6.5V4.61538H5.5ZM6.6269 20.5H13.5228V19.5H6.6269V20.5ZM5.5 19.3846C5.5 20.0093 6.01331 20.5 6.6269 20.5V19.5C6.54803 19.5 6.5 19.4396 6.5 19.3846H5.5ZM6.6269 3.5C6.01331 3.5 5.5 3.99068 5.5 4.61538H6.5C6.5 4.56036 6.54804 4.5 6.6269 4.5V3.5ZM16.7842 8.30769C16.7842 9.58276 16.1442 10.7144 15.1546 11.4074L15.7282 12.2266C16.9695 11.3574 17.7842 9.9276 17.7842 8.30769H16.7842ZM12.8959 4.5C15.0521 4.5 16.7842 6.21348 16.7842 8.30769H17.7842C17.7842 5.64379 15.5868 3.5 12.8959 3.5V4.5ZM17.4111 15.6923C17.4111 17.7865 15.679 19.5 13.5228 19.5V20.5C16.2137 20.5 18.4111 18.3562 18.4111 15.6923H17.4111ZM15.2258 12.2681C16.5242 12.8887 17.4111 14.1921 17.4111 15.6923H18.4111C18.4111 13.785 17.2828 12.143 15.657 11.3659L15.2258 12.2681Z" fill="black"/>
</svg>
