<svg width="24" height="24" viewBox="0 0 24 24" fill="none" xmlns="http://www.w3.org/2000/svg">
<path d="M8 7H20M8 12H20M8 17H20" stroke="black" stroke-linecap="round"/>
<path d="M5.28033 7.58032C5.42098 7.43967 5.5 7.2489 5.5 7.04999C5.5 6.85108 5.42098 6.66031 5.28033 6.51966C5.13968 6.37901 4.94891 6.29999 4.75 6.29999C4.55109 6.29999 4.36032 6.37901 4.21967 6.51966C4.07902 6.66031 4 6.85108 4 7.04999C4 7.2489 4.07902 7.43967 4.21967 7.58032C4.36032 7.72097 4.55109 7.79999 4.75 7.79999C4.94891 7.79999 5.13968 7.72097 5.28033 7.58032Z" fill="black"/>
<path d="M5.28033 12.5803C5.42098 12.4397 5.5 12.2489 5.5 12.05C5.5 11.8511 5.42098 11.6603 5.28033 11.5197C5.13968 11.379 4.94891 11.3 4.75 11.3C4.55109 11.3 4.36032 11.379 4.21967 11.5197C4.07902 11.6603 4 11.8511 4 12.05C4 12.2489 4.07902 12.4397 4.21967 12.5803C4.36032 12.721 4.55109 12.8 4.75 12.8C4.94891 12.8 5.13968 12.721 5.28033 12.5803Z" fill="black"/>
<path d="M5.28033 17.5803C5.42098 17.4397 5.5 17.2489 5.5 17.05C5.5 16.8511 5.42098 16.6603 5.28033 16.5197C5.13968 16.379 4.94891 16.3 4.75 16.3C4.55109 16.3 4.36032 16.379 4.21967 16.5197C4.07902 16.6603 4 16.8511 4 17.05C4 17.2489 4.07902 17.4397 4.21967 17.5803C4.36032 17.721 4.55109 17.8 4.75 17.8C4.94891 17.8 5.13968 17.721 5.28033 17.5803Z" fill="black"/>
</svg>
