<svg width="24" height="24" viewBox="0 0 24 24" fill="none" xmlns="http://www.w3.org/2000/svg">
<path fill-rule="evenodd" clip-rule="evenodd" d="M17.3982 20.3973C18.7789 20.3973 19.8982 19.278 19.8982 17.8973V14.882C19.8982 14.2686 20.2716 13.7171 20.8411 13.4893L21.6575 13.1627C22.2861 12.9113 22.2861 12.0214 21.6575 11.77L20.8411 11.4434C20.2716 11.2156 19.8982 10.6641 19.8982 10.0507V6.5354C19.8982 5.43083 19.0028 4.5354 17.8982 4.5354H15.152C14.8758 4.5354 14.652 4.75926 14.652 5.0354C14.652 5.31154 14.8758 5.5354 15.152 5.5354H17.8982C18.4505 5.5354 18.8982 5.98312 18.8982 6.5354V10.0507C18.8982 11.073 19.5206 11.9922 20.4697 12.3719L20.7058 12.4663L20.4697 12.5608C19.5206 12.9404 18.8982 13.8597 18.8982 14.882V17.8973C18.8982 18.7257 18.2266 19.3973 17.3982 19.3973H15.152C14.8758 19.3973 14.652 19.6211 14.652 19.8973C14.652 20.1734 14.8758 20.3973 15.152 20.3973H17.3982ZM8.15947 4.53541C7.0549 4.53541 6.15947 5.43084 6.15947 6.53541V10.0507C6.15947 10.6641 5.78605 11.2156 5.21656 11.4434L4.40017 11.77C3.77156 12.0214 3.77156 12.9113 4.40017 13.1627L5.21656 13.4893C5.78605 13.7171 6.15947 14.2686 6.15947 14.882V18.3973C6.15947 19.5019 7.0549 20.3973 8.15947 20.3973H10.9057C11.1819 20.3973 11.4057 20.1734 11.4057 19.8973C11.4057 19.6212 11.1819 19.3973 10.9057 19.3973H8.15947C7.60719 19.3973 7.15947 18.9496 7.15947 18.3973V14.882C7.15947 13.8597 6.5371 12.9404 5.58795 12.5608L5.35186 12.4664L5.58795 12.3719C6.5371 11.9923 7.15947 11.073 7.15947 10.0507V6.53541C7.15947 5.98312 7.60719 5.53541 8.15947 5.53541H10.9057C11.1819 5.53541 11.4057 5.31155 11.4057 5.03541C11.4057 4.75926 11.1819 4.53541 10.9057 4.53541H8.15947Z" fill="black"/>
</svg>
