<svg width="24" height="24" viewBox="0 0 24 24" fill="none" xmlns="http://www.w3.org/2000/svg">
<path fill-rule="evenodd" clip-rule="evenodd" d="M11.4212 6.03333C11.156 6.03333 10.9016 6.13868 10.7141 6.32622L10.407 6.63333H13.3261L13.019 6.32622C12.8315 6.13868 12.5771 6.03333 12.3119 6.03333H11.4212ZM6.5332 6.63333H8.99276L10.007 5.61911C10.382 5.24404 10.8908 5.03333 11.4212 5.03333H12.3119C12.8423 5.03333 13.351 5.24404 13.7261 5.61911L14.7403 6.63333H17.1999C17.476 6.63333 17.6999 6.85718 17.6999 7.13333C17.6999 7.40947 17.476 7.63333 17.1999 7.63333H14.5332H9.19987H6.5332C6.25706 7.63333 6.0332 7.40947 6.0332 7.13333C6.0332 6.85718 6.25706 6.63333 6.5332 6.63333ZM7.14102 10.8345C7.10172 10.2569 7.55971 9.76666 8.13871 9.76666H15.5944C16.1734 9.76666 16.6314 10.2569 16.5921 10.8345L16.0342 19.0345C15.9985 19.5593 15.5625 19.9667 15.0365 19.9667H8.69653C8.17059 19.9667 7.73454 19.5593 7.69884 19.0345L7.14102 10.8345ZM8.13871 8.76666C6.98071 8.76666 6.06473 9.74707 6.14332 10.9024L6.70115 19.1024C6.77254 20.1519 7.64465 20.9667 8.69653 20.9667H15.0365C16.0884 20.9667 16.9605 20.1519 17.0319 19.1024L17.5898 10.9024C17.6683 9.74707 16.7524 8.76666 15.5944 8.76666H8.13871ZM10.2293 12.938C10.1951 12.664 9.9452 12.4696 9.67119 12.5039C9.39718 12.5381 9.20281 12.788 9.23706 13.062L9.7704 17.3287C9.80465 17.6027 10.0545 17.797 10.3286 17.7628C10.6026 17.7285 10.7969 17.4787 10.7627 17.2046L10.2293 12.938ZM14.496 13.062C14.5303 12.788 14.3359 12.5381 14.0619 12.5039C13.7879 12.4696 13.538 12.664 13.5037 12.938L12.9704 17.2046C12.9361 17.4787 13.1305 17.7285 13.4045 17.7628C13.6785 17.797 13.9284 17.6027 13.9627 17.3287L14.496 13.062Z" fill="black"/>
</svg>
