<svg width="24" height="24" viewBox="0 0 24 24" fill="none" xmlns="http://www.w3.org/2000/svg">
<path fill-rule="evenodd" clip-rule="evenodd" d="M14.0149 3.99805C13.7388 3.99805 13.5149 4.2219 13.5149 4.49805C13.5149 4.77419 13.7388 4.99805 14.0149 4.99805H14.5732C14.5726 5.00754 14.5723 5.0171 14.5723 5.02672V18.8021H14.0149C13.7388 18.8021 13.5149 19.0259 13.5149 19.3021C13.5149 19.5782 13.7388 19.8021 14.0149 19.8021H16.1298C16.4059 19.8021 16.6298 19.5782 16.6298 19.3021C16.6298 19.0259 16.4059 18.8021 16.1298 18.8021H15.5723V5.02672C15.5723 5.0171 15.5721 5.00754 15.5715 4.99805H16.1298C16.4059 4.99805 16.6298 4.77419 16.6298 4.49805C16.6298 4.2219 16.4059 3.99805 16.1298 3.99805H14.0149ZM3.99805 19.3021C3.99805 19.0259 4.2219 18.8021 4.49805 18.8021H5.05542V5.0267C5.05542 5.01709 5.0557 5.00753 5.05623 4.99805H4.49805C4.2219 4.99805 3.99805 4.77419 3.99805 4.49805C3.99805 4.2219 4.2219 3.99805 4.49805 3.99805H6.61291C6.88905 3.99805 7.11291 4.2219 7.11291 4.49805C7.11291 4.77419 6.88905 4.99805 6.61291 4.99805H6.05462C6.05515 5.00753 6.05542 5.01709 6.05542 5.0267V11.4001H14.5436V12.4001H6.05542V18.8021H6.61291C6.88905 18.8021 7.11291 19.0259 7.11291 19.3021C7.11291 19.5782 6.88905 19.8021 6.61291 19.8021H4.49805C4.2219 19.8021 3.99805 19.5782 3.99805 19.3021ZM19.0137 12.6417C19.1113 12.7393 19.1601 12.8673 19.1601 12.9952H19.1601V18.8021H19.642C19.9181 18.8021 20.142 19.0259 20.142 19.3021C20.142 19.5782 19.9181 19.8021 19.642 19.8021H17.5271C17.251 19.8021 17.0271 19.5782 17.0271 19.3021C17.0271 19.0259 17.251 18.8021 17.5271 18.8021H18.1601V14.2023L17.8807 14.4817C17.6854 14.677 17.3688 14.677 17.1736 14.4817C16.9783 14.2865 16.9783 13.9699 17.1736 13.7746L18.3065 12.6417C18.5018 12.4464 18.8184 12.4464 19.0137 12.6417Z" fill="black"/>
</svg>
