<svg width="24" height="24" viewBox="0 0 24 24" fill="none" xmlns="http://www.w3.org/2000/svg">
<path fill-rule="evenodd" clip-rule="evenodd" d="M12.8807 5C12.6046 5 12.3807 5.22386 12.3807 5.5C12.3807 5.77614 12.6046 6 12.8807 6H13.3118V11.5423L5.9312 11.5423V6H6.36237C6.63851 6 6.86237 5.77614 6.86237 5.5C6.86237 5.22386 6.63851 5 6.36237 5H4.5C4.22386 5 4 5.22386 4 5.5C4 5.77614 4.22386 6 4.5 6H4.9312V18.0846H4.5C4.22386 18.0846 4 18.3085 4 18.5846C4 18.8608 4.22386 19.0846 4.5 19.0846H5.40683C5.41491 19.085 5.42303 19.0852 5.4312 19.0852C5.43937 19.0852 5.4475 19.085 5.45558 19.0846H6.36237C6.63851 19.0846 6.86237 18.8608 6.86237 18.5846C6.86237 18.3085 6.63851 18.0846 6.36237 18.0846H5.9312V12.5423L13.3118 12.5423V18.0846H12.8807C12.6046 18.0846 12.3807 18.3085 12.3807 18.5846C12.3807 18.8608 12.6046 19.0846 12.8807 19.0846H13.7879C13.7958 19.085 13.8038 19.0852 13.8118 19.0852C13.8198 19.0852 13.8278 19.085 13.8357 19.0846H14.7431C15.0192 19.0846 15.2431 18.8608 15.2431 18.5846C15.2431 18.3085 15.0192 18.0846 14.7431 18.0846H14.3118V6H14.7431C15.0192 6 15.2431 5.77614 15.2431 5.5C15.2431 5.22386 15.0192 5 14.7431 5H12.8807ZM16.6408 13.8452C16.6408 13.1518 17.2029 12.5897 17.8963 12.5897C18.5897 12.5897 19.1518 13.1518 19.1518 13.8452C19.1518 14.2945 18.8821 14.9404 18.2747 15.7027C17.6802 16.4487 16.811 17.2445 15.7347 17.9845C15.2249 18.3351 15.4407 19.1794 16.1033 19.1794H19.6518C19.928 19.1794 20.1518 18.9555 20.1518 18.6794C20.1518 18.4032 19.928 18.1794 19.6518 18.1794H17.1549C17.9175 17.5763 18.5632 16.9453 19.0567 16.3258C19.7124 15.5031 20.1518 14.6349 20.1518 13.8452C20.1518 12.5995 19.142 11.5897 17.8963 11.5897C16.6507 11.5897 15.6408 12.5995 15.6408 13.8452C15.6408 14.1213 15.8647 14.3452 16.1408 14.3452C16.417 14.3452 16.6408 14.1213 16.6408 13.8452Z" fill="black"/>
</svg>
