<svg width="24" height="24" viewBox="0 0 24 24" fill="none" xmlns="http://www.w3.org/2000/svg">
<path fill-rule="evenodd" clip-rule="evenodd" d="M5.39061 5H6.28125C6.5574 5 6.78125 5.22386 6.78125 5.5C6.78125 5.77614 6.5574 6 6.28125 6H5.89061V11.3642L12.9938 11.3642V6H12.5157C12.2395 6 12.0157 5.77614 12.0157 5.5C12.0157 5.22386 12.2395 5 12.5157 5H14.4035C14.6796 5 14.9035 5.22386 14.9035 5.5C14.9035 5.77614 14.6796 6 14.4035 6H13.9938V17.7291H14.4035C14.6796 17.7291 14.9035 17.9529 14.9035 18.2291C14.9035 18.5052 14.6796 18.7291 14.4035 18.7291H13.6672C13.6132 18.749 13.5548 18.7599 13.4938 18.7599C13.4329 18.7599 13.3745 18.749 13.3204 18.7291H12.5157C12.2395 18.7291 12.0157 18.5052 12.0157 18.2291C12.0157 17.9529 12.2395 17.7291 12.5157 17.7291H12.9938V12.3642L5.89061 12.3642V17.7291H6.38782C6.66396 17.7291 6.88782 17.9529 6.88782 18.2291C6.88782 18.5052 6.66396 18.7291 6.38782 18.7291H5.39627L5.39061 18.7291L5.38494 18.7291H4.5C4.22386 18.7291 4 18.5052 4 18.2291C4 17.9529 4.22386 17.7291 4.5 17.7291H4.89061V6H4.5C4.22386 6 4 5.77614 4 5.5C4 5.22386 4.22386 5 4.5 5H5.39061ZM17.032 12.9552C17.1709 12.7796 17.3567 12.6362 17.6028 12.5288C17.8506 12.4215 18.1295 12.3645 18.4462 12.3645C18.7892 12.3645 19.0531 12.4299 19.2566 12.5385L19.259 12.5398C19.4799 12.6562 19.6333 12.8004 19.7375 12.9688C19.8454 13.1429 19.8968 13.3242 19.8968 13.5222C19.8968 13.7194 19.7805 13.8891 19.3927 14.0606C19.207 14.1427 18.9936 14.2078 18.7708 14.2668C18.6954 14.2868 18.6119 14.3077 18.5278 14.3288L18.5275 14.3289C18.3882 14.3638 18.247 14.3991 18.1371 14.4316C18.0488 14.4577 17.933 14.5091 17.8376 14.6131C17.7351 14.7248 17.6495 14.9132 17.7089 15.1308C17.7639 15.3323 17.9122 15.4423 18.0193 15.492C18.1302 15.5434 18.2427 15.5555 18.336 15.5518C18.3831 15.5499 18.4307 15.5478 18.4786 15.5456C18.748 15.5335 19.028 15.5209 19.2977 15.5516C19.6205 15.5884 19.8098 15.6766 19.9064 15.7929C20.0121 15.9202 20.0642 16.0166 20.0938 16.1037C20.1241 16.1923 20.1406 16.2995 20.1406 16.4625C20.1406 16.6956 20.0756 16.895 19.944 17.0763L19.9435 17.077C19.8072 17.2654 19.6155 17.4232 19.3507 17.5448C19.0922 17.6636 18.7855 17.7291 18.4205 17.7291C18.0512 17.7291 17.7406 17.6694 17.4797 17.5616C17.218 17.4526 17.0291 17.31 16.8943 17.1417C16.7686 16.9804 16.6987 16.795 16.6868 16.5693C16.6723 16.2935 16.4369 16.0817 16.1612 16.0963C15.8854 16.1108 15.6737 16.3461 15.6882 16.6219C15.7105 17.0447 15.8497 17.4294 16.1081 17.7598L16.1081 17.7598L16.111 17.7634C16.3653 18.0823 16.6999 18.3201 17.0958 18.485L17.0968 18.4854C17.4989 18.6517 17.943 18.7291 18.4205 18.7291C18.9068 18.7291 19.3594 18.6413 19.7681 18.4535C20.1706 18.2687 20.5049 18.0071 20.7536 17.6633C21.0111 17.3083 21.1406 16.9028 21.1406 16.4625C21.1406 16.2323 21.1175 16.0075 21.0404 15.7812C20.9628 15.5533 20.84 15.3518 20.6755 15.1538C20.5324 14.9816 20.3609 14.8577 20.18 14.7685C20.5595 14.5182 20.8968 14.1285 20.8968 13.5222C20.8968 13.1354 20.7921 12.7722 20.5877 12.4422C20.3799 12.1067 20.0867 11.8458 19.7263 11.6557C19.3483 11.4542 18.9153 11.3645 18.4462 11.3645C18.0059 11.3645 17.5899 11.4446 17.2047 11.6114L17.2036 11.6119C16.8214 11.7786 16.4985 12.018 16.2484 12.334C15.9849 12.6647 15.8459 13.0521 15.8291 13.4783C15.8181 13.7542 16.033 13.9867 16.3089 13.9976C16.5848 14.0085 16.8174 13.7937 16.8283 13.5178C16.8371 13.2949 16.9054 13.1139 17.0308 12.9568L17.032 12.9552ZM16.2484 12.334L16.249 12.3332L16.6399 12.645L16.2477 12.3348L16.2484 12.334Z" fill="black"/>
</svg>
