<svg width="24" height="24" viewBox="0 0 24 24" fill="none" xmlns="http://www.w3.org/2000/svg">
<path fill-rule="evenodd" clip-rule="evenodd" d="M13.1184 4.05401H16.9295C17.2056 4.05401 17.4295 4.27787 17.4295 4.55401C17.4295 4.83015 17.2056 5.05401 16.9295 5.05401H13.4983L10.0254 18.9459H13.2065C13.4827 18.9459 13.7065 19.1698 13.7065 19.4459C13.7065 19.7221 13.4827 19.9459 13.2065 19.9459H9.39671C9.38915 19.9461 9.38157 19.9461 9.37396 19.9459H5.55371C5.27757 19.9459 5.05371 19.7221 5.05371 19.4459C5.05371 19.1698 5.27757 18.9459 5.55371 18.9459H8.99458L12.4676 5.05401H9.27669C9.00055 5.05401 8.77669 4.83015 8.77669 4.55401C8.77669 4.27787 9.00055 4.05401 9.27669 4.05401H13.0967C13.1039 4.05386 13.1112 4.05385 13.1184 4.05401Z" fill="black"/>
</svg>
