<svg width="24" height="24" viewBox="0 0 24 24" fill="none" xmlns="http://www.w3.org/2000/svg">
<path fill-rule="evenodd" clip-rule="evenodd" d="M5.43091 12.9347C5.43091 14.7295 6.8859 16.1845 8.68072 16.1845H11.1806C11.4567 16.1845 11.6806 16.4084 11.6806 16.6845C11.6806 16.9607 11.4567 17.1845 11.1806 17.1845H8.68072C6.33361 17.1845 4.43091 15.2818 4.43091 12.9347C4.43091 10.5876 6.33362 8.6849 8.68072 8.6849L11.1806 8.6849C11.4567 8.6849 11.6806 8.90876 11.6806 9.1849C11.6806 9.46104 11.4567 9.6849 11.1806 9.6849H8.68072C6.8859 9.6849 5.43091 11.1399 5.43091 12.9347ZM19.4302 12.9347C19.4302 11.1399 17.9752 9.68491 16.1803 9.68491H13.6805C13.4043 9.68491 13.1805 9.46105 13.1805 9.18491C13.1805 8.90876 13.4043 8.68491 13.6805 8.68491H16.1803C18.5275 8.68491 20.4302 10.5876 20.4302 12.9347C20.4302 15.2818 18.5274 17.1845 16.1803 17.1845L13.6805 17.1845C13.4043 17.1845 13.1805 16.9607 13.1805 16.6845C13.1805 16.4084 13.4043 16.1845 13.6805 16.1845L16.1803 16.1845C17.9752 16.1845 19.4302 14.7295 19.4302 12.9347ZM9.93066 12.4347C9.65452 12.4347 9.43066 12.6586 9.43066 12.9347C9.43066 13.2109 9.65452 13.4347 9.93066 13.4347L15.5554 13.4347C15.8315 13.4347 16.0554 13.2109 16.0554 12.9347C16.0554 12.6586 15.8315 12.4347 15.5554 12.4347L9.93066 12.4347Z" fill="black"/>
</svg>
