<svg width="24" height="24" viewBox="0 0 24 24" fill="none" xmlns="http://www.w3.org/2000/svg">
<path d="M9 6H20" stroke="black" stroke-linecap="round" stroke-linejoin="round"/>
<path d="M5 8V4" stroke="black" stroke-linecap="round" stroke-linejoin="round"/>
<path d="M6 14H4.6C4.26863 14 4 13.7314 4 13.4V12.6C4 12.2686 4.26863 12 4.6 12H5.4C5.73137 12 6 11.7314 6 11.4V10.6C6 10.2686 5.73137 10 5.4 10H4" stroke="black" stroke-linecap="round" stroke-linejoin="round"/>
<path d="M4 16H5.4C5.73137 16 6 16.2686 6 16.6V19.4C6 19.7314 5.73137 20 5.4 20H4" stroke="black" stroke-linecap="round" stroke-linejoin="round"/>
<path d="M6 18H4" stroke="black" stroke-linecap="round" stroke-linejoin="round"/>
<path d="M9 12H20" stroke="black" stroke-linecap="round" stroke-linejoin="round"/>
<path d="M9 18H20" stroke="black" stroke-linecap="round" stroke-linejoin="round"/>
</svg>
