<svg width="24" height="24" viewBox="0 0 24 24" fill="none" xmlns="http://www.w3.org/2000/svg">
<path fill-rule="evenodd" clip-rule="evenodd" d="M5 5.5C5 5.22386 4.77614 5 4.5 5C4.22386 5 4 5.22386 4 5.5V18.5C4 18.7761 4.22386 19 4.5 19C4.77614 19 5 18.7761 5 18.5V5.5ZM6.5 8C6.22386 8 6 8.22386 6 8.5C6 8.77614 6.22386 9 6.5 9H19.5C19.7761 9 20 8.77614 20 8.5C20 8.22386 19.7761 8 19.5 8H6.5ZM6 12.5C6 12.2239 6.22386 12 6.5 12H16C16.2761 12 16.5 12.2239 16.5 12.5C16.5 12.7761 16.2761 13 16 13H6.5C6.22386 13 6 12.7761 6 12.5ZM6.5 16C6.22386 16 6 16.2239 6 16.5C6 16.7761 6.22386 17 6.5 17H12.5C12.7761 17 13 16.7761 13 16.5C13 16.2239 12.7761 16 12.5 16H6.5Z" fill="black"/>
</svg>
