<svg width="24" height="24" viewBox="0 0 24 24" fill="none" xmlns="http://www.w3.org/2000/svg">
<path fill-rule="evenodd" clip-rule="evenodd" d="M5 6C5 4.89543 5.89543 4 7 4H18C19.1046 4 20 4.89543 20 6V7.5C20 7.77614 19.7761 8 19.5 8C19.2239 8 19 7.77614 19 7.5V6C19 5.44772 18.5523 5 18 5H13.0092C13.0113 5.01869 13.0124 5.03768 13.0124 5.05693V18.2748H15.6433C15.9195 18.2748 16.1433 18.4987 16.1433 18.7748C16.1433 19.051 15.9195 19.2748 15.6433 19.2748H9.28467C9.00853 19.2748 8.78467 19.051 8.78467 18.7748C8.78467 18.4987 9.00853 18.2748 9.28467 18.2748H12.0124V5.05693C12.0124 5.03768 12.0135 5.01869 12.0156 5H7C6.44772 5 6 5.44772 6 6V7.5C6 7.77614 5.77614 8 5.5 8C5.22386 8 5 7.77614 5 7.5V6Z" fill="black"/>
</svg>
