<svg width="24" height="24" viewBox="0 0 24 24" fill="none" xmlns="http://www.w3.org/2000/svg">
<path fill-rule="evenodd" clip-rule="evenodd" d="M8.50015 4.72101C8.50015 4.44487 8.27629 4.22101 8.00015 4.22101C7.72401 4.22101 7.50015 4.44487 7.50015 4.72101V12.851C7.50015 14.144 7.96302 15.3932 8.80048 16.3216C9.63949 17.2517 10.7891 17.7855 12.0003 17.7855C13.2114 17.7855 14.361 17.2517 15.2 16.3216C16.0375 15.3932 16.5004 14.144 16.5004 12.851V4.72101C16.5004 4.44487 16.2765 4.22101 16.0004 4.22101C15.7242 4.22101 15.5004 4.44487 15.5004 4.72101V12.851C15.5004 13.9102 15.1203 14.9169 14.4575 15.6518C13.7962 16.3849 12.9109 16.7855 12.0003 16.7855C11.0896 16.7855 10.2044 16.3849 9.54303 15.6518C8.88017 14.9169 8.50015 13.9102 8.50015 12.851V4.72101ZM6 19.0024C5.72386 19.0024 5.5 19.2263 5.5 19.5024C5.5 19.7785 5.72386 20.0024 6 20.0024H18C18.2761 20.0024 18.5 19.7785 18.5 19.5024C18.5 19.2263 18.2761 19.0024 18 19.0024H6Z" fill="black"/>
</svg>
