<svg width="24" height="24" viewBox="0 0 24 24" fill="none" xmlns="http://www.w3.org/2000/svg">
<g clip-path="url(#clip0_3694_28835)">
<path d="M20 12C20 7.58174 16.4183 4.00002 12 4.00002C7.58172 4.00002 4 7.58174 4 12C4 15.993 6.92548 19.3027 10.75 19.9028V14.3125H8.71875V12H10.75V10.2375C10.75 8.23252 11.9443 7.12502 13.7717 7.12502C14.647 7.12502 15.5625 7.28127 15.5625 7.28127V9.25002H14.5537C13.5599 9.25002 13.25 9.86669 13.25 10.4993V12H15.4688L15.1141 14.3125H13.25V19.9028C17.0745 19.3027 20 15.993 20 12Z" fill="#1877F2"/>
<path d="M15.1141 14.3125L15.4688 12H13.25V10.4993C13.25 9.86667 13.5599 9.25 14.5537 9.25H15.5625V7.28125C15.5625 7.28125 14.647 7.125 13.7717 7.125C11.9443 7.125 10.75 8.2325 10.75 10.2375V12H8.71875V14.3125H10.75V19.9028C11.1573 19.9667 11.5748 20 12 20C12.4253 20 12.8427 19.9667 13.25 19.9028V14.3125H15.1141Z" fill="white"/>
</g>
<defs>
<clipPath id="clip0_3694_28835">
<rect width="16" height="16" fill="white" transform="translate(4 4)"/>
</clipPath>
</defs>
</svg>
