<svg width="24" height="24" viewBox="0 0 24 24" fill="none" xmlns="http://www.w3.org/2000/svg">
<path d="M19.3734 12.5C19.3734 11.98 19.3267 11.48 19.24 11H12.3334V13.8367H16.28C16.11 14.7533 15.5934 15.53 14.8167 16.05V17.89H17.1867C18.5734 16.6133 19.3734 14.7333 19.3734 12.5Z" fill="#4285F4"/>
<path d="M12.3334 19.6667C14.3134 19.6667 15.9734 19.01 17.1867 17.89L14.8167 16.05C14.16 16.49 13.32 16.75 12.3334 16.75C10.4234 16.75 8.8067 15.46 8.23003 13.7267H5.78003V15.6267C6.9867 18.0234 9.4667 19.6667 12.3334 19.6667Z" fill="#34A853"/>
<path d="M8.23 13.7267C8.08333 13.2867 8 12.8167 8 12.3334C8 11.85 8.08333 11.38 8.23 10.94V9.04004H5.78C5.26667 10.0619 4.99955 11.1898 5 12.3334C5 13.5167 5.28333 14.6367 5.78 15.6267L8.23 13.7267Z" fill="#FBBC05"/>
<path d="M12.3334 7.91667C13.41 7.91667 14.3767 8.28667 15.1367 9.01333L17.24 6.91C15.97 5.72667 14.31 5 12.3334 5C9.4667 5 6.9867 6.64333 5.78003 9.04L8.23003 10.94C8.8067 9.20667 10.4234 7.91667 12.3334 7.91667Z" fill="#EA4335"/>
</svg>
