<svg width="24" height="24" viewBox="0 0 24 24" fill="none" xmlns="http://www.w3.org/2000/svg">
<path d="M17.6328 17.4984H15.2621V13.8223C15.2621 12.9457 15.2463 11.8173 14.0291 11.8173C12.7943 11.8173 12.6054 12.7724 12.6054 13.7585V17.4981H10.2347V9.93866H12.5106V10.9717H12.5424C12.7702 10.5861 13.0993 10.2689 13.4947 10.0539C13.8902 9.83887 14.3371 9.73406 14.7879 9.75063C17.1907 9.75063 17.6338 11.3155 17.6338 13.3514L17.6328 17.4984ZM7.55975 8.90533C7.28765 8.90538 7.02165 8.82554 6.79538 8.6759C6.56911 8.52626 6.39275 8.31354 6.28858 8.06465C6.18441 7.81576 6.15711 7.54187 6.21014 7.27762C6.26318 7.01337 6.39417 6.77063 6.58653 6.58009C6.7789 6.38955 7.02401 6.25977 7.29087 6.20716C7.55773 6.15455 7.83435 6.18148 8.08575 6.28454C8.33715 6.38759 8.55205 6.56215 8.70326 6.78614C8.85447 7.01012 8.9352 7.27347 8.93525 7.54289C8.93529 7.72178 8.89973 7.89892 8.83062 8.0642C8.76151 8.22948 8.66021 8.37967 8.53249 8.50618C8.40476 8.6327 8.2531 8.73306 8.0862 8.80155C7.9193 8.87003 7.74042 8.9053 7.55975 8.90533ZM8.7451 17.4984H6.37193V9.93866H8.7451V17.4984ZM18.8147 4.00108H5.18066C4.87121 3.99762 4.57301 4.11595 4.35163 4.33007C4.13024 4.54418 4.00378 4.83657 4 5.14297V18.6987C4.00365 19.0052 4.13004 19.2978 4.35142 19.5122C4.57279 19.7265 4.87105 19.8451 5.18066 19.8418H18.8147C19.1249 19.8456 19.424 19.7274 19.6462 19.5131C19.8685 19.2988 19.9957 19.0058 20 18.6987V5.14199C19.9956 4.83498 19.8683 4.54226 19.646 4.32815C19.4237 4.11404 19.1247 3.99605 18.8147 4.0001" fill="#6D9EEB"/>
</svg>
