<svg width="24" height="24" viewBox="0 0 24 24" fill="none" xmlns="http://www.w3.org/2000/svg">
<path fill-rule="evenodd" clip-rule="evenodd" d="M15.2831 15.4009C15.0878 15.2057 15.0878 14.8891 15.2831 14.6938L17.5859 12.391L7.74558 12.391C7.46944 12.391 7.24558 12.1671 7.24558 11.891C7.24558 11.6148 7.46944 11.391 7.74558 11.391L17.5859 11.391L15.2831 9.08811C15.0878 8.89285 15.0878 8.57627 15.2831 8.381C15.4783 8.18574 15.7949 8.18574 15.9902 8.381L19.1466 11.5374L19.5002 11.891L19.1466 12.2445L15.9902 15.4009C15.7949 15.5962 15.4783 15.5962 15.2831 15.4009ZM14.0368 17.4999V16.9999C14.0368 16.7238 13.8129 16.4999 13.5368 16.4999C13.2606 16.4999 13.0368 16.7238 13.0368 16.9999V17.4999C13.0368 18.0522 12.5891 18.4999 12.0368 18.4999H6.03677C5.48449 18.4999 5.03677 18.0522 5.03677 17.4999L5.03677 6.49994C5.03677 5.94765 5.48449 5.49994 6.03677 5.49994L12.0368 5.49994C12.5891 5.49994 13.0368 5.94765 13.0368 6.49994V6.99994C13.0368 7.27608 13.2606 7.49994 13.5368 7.49994C13.8129 7.49994 14.0368 7.27608 14.0368 6.99994V6.49994C14.0368 5.39537 13.1413 4.49994 12.0368 4.49994L6.03677 4.49994C4.9322 4.49994 4.03677 5.39537 4.03677 6.49994L4.03677 17.4999C4.03677 18.6045 4.9322 19.4999 6.03677 19.4999H12.0368C13.1413 19.4999 14.0368 18.6045 14.0368 17.4999Z" fill="#262626"/>
</svg>
