<svg width="34" height="28" viewBox="0 0 34 28" fill="none" xmlns="http://www.w3.org/2000/svg">
<path d="M16 7.01867V23.5187C16.1667 25.0187 17.0355 28.1606 18.5 26.5187C19.7191 25.1519 15.4552 23.8826 14 23.5187C12.0913 23.0414 7.45043 22.109 2.25016 24.6323C1.9087 24.7979 1.5 24.5615 1.5 24.1819C1.5 20.8911 1.5 10.2196 1.5 4.21432C1.5 3.79535 1.76004 3.42038 2.15893 3.29224C5.47685 2.22641 11.8064 1.22051 15.6075 4.18951C15.8288 4.36241 16.1487 4.34226 16.3557 4.15244C18.8299 1.88381 24.9065 1.15001 28.5019 1.03531C29.0539 1.0177 29.5 1.46628 29.5 2.01857V18.1017C29.5 18.3431 29.3295 18.5493 29.0927 18.5966C26.7054 19.0732 22.5368 20.2285 20.1867 21.9141C19.7864 22.2012 20.1036 22.764 20.5937 22.7139C22.8289 22.4857 26.7618 22.6956 31.7993 24.7272C32.1322 24.8615 32.5 24.6215 32.5 24.2625C32.5 19.8411 32.5 10.4151 32.5 6.01867" stroke="currentColor" stroke-width="1.3" stroke-linecap="round" stroke-linejoin="round"/>
</svg>
