<svg width="25" height="24" viewBox="0 0 25 24" fill="none" xmlns="http://www.w3.org/2000/svg">
<g id="Interaction">
<path id="Vector" d="M13.5455 13.9114C8.40384 13.6863 6.74746 15.9825 5.24922 18.7966L5.24802 18.7982C5.18093 18.9097 5.06899 18.9767 4.91219 18.9992C4.86632 19.0027 4.82028 18.995 4.77802 18.9767C4.68261 18.946 4.60212 18.8804 4.55249 18.7929C4.50286 18.7053 4.48772 18.6022 4.51008 18.5039C4.5548 18.3238 4.57716 18.0762 4.62189 17.761L4.62696 17.7214C4.94414 15.2478 5.67031 9.58463 13.5219 8.75613C13.5443 8.73362 13.5666 8.73362 13.5666 8.71111V6.48401C13.5666 6.30391 13.6784 6.14633 13.835 6.05628C13.9915 5.98874 14.2151 5.96623 14.3717 6.07879C14.3717 6.07879 20.2949 10.7906 20.3435 10.8273C20.3921 10.8639 20.4315 10.9115 20.4587 10.9662C20.4859 11.0209 20.5 11.0813 20.5 11.1424C20.5 11.2036 20.4859 11.2639 20.4587 11.3186C20.4315 11.3733 20.3921 11.4209 20.3435 11.4576L14.3729 16.5453C14.3168 16.6121 14.2409 16.659 14.1564 16.6793C14.0719 16.6995 13.9832 16.6921 13.9033 16.6579C13.702 16.5679 13.5678 16.3427 13.5678 16.1626V13.9339L13.5455 13.9114Z" stroke="#262626" stroke-linecap="round" stroke-linejoin="round"/>
</g>
</svg>
