<svg width="24" height="24" viewBox="0 0 24 24" fill="none" xmlns="http://www.w3.org/2000/svg">
<path d="M13.0455 13.9114C7.90384 13.6863 6.24746 15.9825 4.74922 18.7966L4.74802 18.7982C4.68093 18.9097 4.56899 18.9767 4.41219 18.9992C4.36632 19.0027 4.32028 18.995 4.27802 18.9767C4.18261 18.946 4.10212 18.8804 4.05249 18.7929C4.00286 18.7053 3.98772 18.6022 4.01008 18.5039C4.0548 18.3238 4.07716 18.0762 4.12189 17.761L4.12696 17.7214C4.44414 15.2478 5.17031 9.58463 13.0219 8.75613C13.0443 8.73362 13.0666 8.73362 13.0666 8.71111V6.48401C13.0666 6.30391 13.1784 6.14633 13.335 6.05628C13.4915 5.98874 13.7151 5.96623 13.8717 6.07879C13.8717 6.07879 19.7949 10.7906 19.8435 10.8273C19.8921 10.8639 19.9315 10.9115 19.9587 10.9662C19.9859 11.0209 20 11.0813 20 11.1424C20 11.2036 19.9859 11.2639 19.9587 11.3186C19.9315 11.3733 19.8921 11.4209 19.8435 11.4576L13.8729 16.5453C13.8168 16.6121 13.7409 16.659 13.6564 16.6793C13.5719 16.6995 13.4832 16.6921 13.4033 16.6579C13.202 16.5679 13.0678 16.3427 13.0678 16.1626V13.9339L13.0455 13.9114Z" stroke="black" stroke-width="1.3" stroke-linecap="round" stroke-linejoin="round"/>
</svg>
